<?xml version="1.0" encoding="utf-8" standalone="no"?>
<!DOCTYPE svg PUBLIC "-//W3C//DTD SVG 1.1//EN"
  "http://www.w3.org/Graphics/SVG/1.1/DTD/svg11.dtd">
<svg xmlns:xlink="http://www.w3.org/1999/xlink" width="1296pt" height="432pt" viewBox="0 0 1296 432" xmlns="http://www.w3.org/2000/svg" version="1.1">
 <metadata>
  <rdf:RDF xmlns:dc="http://purl.org/dc/elements/1.1/" xmlns:cc="http://creativecommons.org/ns#" xmlns:rdf="http://www.w3.org/1999/02/22-rdf-syntax-ns#">
   <cc:Work>
    <dc:type rdf:resource="http://purl.org/dc/dcmitype/StillImage"/>
    <dc:date>2021-11-29T10:30:33.140967</dc:date>
    <dc:format>image/svg+xml</dc:format>
    <dc:creator>
     <cc:Agent>
      <dc:title>Matplotlib v3.5.0, https://matplotlib.org/</dc:title>
     </cc:Agent>
    </dc:creator>
   </cc:Work>
  </rdf:RDF>
 </metadata>
 <defs>
  <style type="text/css">*{stroke-linejoin: round; stroke-linecap: butt}</style>
 </defs>
 <g id="figure_1">
  <g id="patch_1">
   <path d="M 0 432 
L 1296 432 
L 1296 0 
L 0 0 
L 0 432 
z
" style="fill: none"/>
  </g>
  <g id="axes_1">
   <g id="patch_2">
    <path d="M 162 378 
L 618.545455 378 
L 618.545455 51.84 
L 162 51.84 
z
" style="fill: #ffffff"/>
   </g>
   <g id="matplotlib.axis_1">
    <g id="xtick_1">
     <g id="line2d_1">
      <defs>
       <path id="m9388220017" d="M 0 0 
L 0 3.5 
" style="stroke: #000000; stroke-width: 0.8"/>
      </defs>
      <g>
       <use xlink:href="#m9388220017" x="182.752066" y="378" style="stroke: #000000; stroke-width: 0.8"/>
      </g>
     </g>
     <g id="text_1">
      <!-- 0 -->
      <g transform="translate(179.570816 392.598437)scale(0.1 -0.1)">
       <defs>
        <path id="DejaVuSans-30" d="M 2034 4250 
Q 1547 4250 1301 3770 
Q 1056 3291 1056 2328 
Q 1056 1369 1301 889 
Q 1547 409 2034 409 
Q 2525 409 2770 889 
Q 3016 1369 3016 2328 
Q 3016 3291 2770 3770 
Q 2525 4250 2034 4250 
z
M 2034 4750 
Q 2819 4750 3233 4129 
Q 3647 3509 3647 2328 
Q 3647 1150 3233 529 
Q 2819 -91 2034 -91 
Q 1250 -91 836 529 
Q 422 1150 422 2328 
Q 422 3509 836 4129 
Q 1250 4750 2034 4750 
z
" transform="scale(0.015625)"/>
       </defs>
       <use xlink:href="#DejaVuSans-30"/>
      </g>
     </g>
    </g>
    <g id="xtick_2">
     <g id="line2d_2">
      <g>
       <use xlink:href="#m9388220017" x="266.598798" y="378" style="stroke: #000000; stroke-width: 0.8"/>
      </g>
     </g>
     <g id="text_2">
      <!-- 20 -->
      <g transform="translate(260.236298 392.598437)scale(0.1 -0.1)">
       <defs>
        <path id="DejaVuSans-32" d="M 1228 531 
L 3431 531 
L 3431 0 
L 469 0 
L 469 531 
Q 828 903 1448 1529 
Q 2069 2156 2228 2338 
Q 2531 2678 2651 2914 
Q 2772 3150 2772 3378 
Q 2772 3750 2511 3984 
Q 2250 4219 1831 4219 
Q 1534 4219 1204 4116 
Q 875 4013 500 3803 
L 500 4441 
Q 881 4594 1212 4672 
Q 1544 4750 1819 4750 
Q 2544 4750 2975 4387 
Q 3406 4025 3406 3419 
Q 3406 3131 3298 2873 
Q 3191 2616 2906 2266 
Q 2828 2175 2409 1742 
Q 1991 1309 1228 531 
z
" transform="scale(0.015625)"/>
       </defs>
       <use xlink:href="#DejaVuSans-32"/>
       <use xlink:href="#DejaVuSans-30" x="63.623047"/>
      </g>
     </g>
    </g>
    <g id="xtick_3">
     <g id="line2d_3">
      <g>
       <use xlink:href="#m9388220017" x="350.44553" y="378" style="stroke: #000000; stroke-width: 0.8"/>
      </g>
     </g>
     <g id="text_3">
      <!-- 40 -->
      <g transform="translate(344.08303 392.598437)scale(0.1 -0.1)">
       <defs>
        <path id="DejaVuSans-34" d="M 2419 4116 
L 825 1625 
L 2419 1625 
L 2419 4116 
z
M 2253 4666 
L 3047 4666 
L 3047 1625 
L 3713 1625 
L 3713 1100 
L 3047 1100 
L 3047 0 
L 2419 0 
L 2419 1100 
L 313 1100 
L 313 1709 
L 2253 4666 
z
" transform="scale(0.015625)"/>
       </defs>
       <use xlink:href="#DejaVuSans-34"/>
       <use xlink:href="#DejaVuSans-30" x="63.623047"/>
      </g>
     </g>
    </g>
    <g id="xtick_4">
     <g id="line2d_4">
      <g>
       <use xlink:href="#m9388220017" x="434.292261" y="378" style="stroke: #000000; stroke-width: 0.8"/>
      </g>
     </g>
     <g id="text_4">
      <!-- 60 -->
      <g transform="translate(427.929761 392.598437)scale(0.1 -0.1)">
       <defs>
        <path id="DejaVuSans-36" d="M 2113 2584 
Q 1688 2584 1439 2293 
Q 1191 2003 1191 1497 
Q 1191 994 1439 701 
Q 1688 409 2113 409 
Q 2538 409 2786 701 
Q 3034 994 3034 1497 
Q 3034 2003 2786 2293 
Q 2538 2584 2113 2584 
z
M 3366 4563 
L 3366 3988 
Q 3128 4100 2886 4159 
Q 2644 4219 2406 4219 
Q 1781 4219 1451 3797 
Q 1122 3375 1075 2522 
Q 1259 2794 1537 2939 
Q 1816 3084 2150 3084 
Q 2853 3084 3261 2657 
Q 3669 2231 3669 1497 
Q 3669 778 3244 343 
Q 2819 -91 2113 -91 
Q 1303 -91 875 529 
Q 447 1150 447 2328 
Q 447 3434 972 4092 
Q 1497 4750 2381 4750 
Q 2619 4750 2861 4703 
Q 3103 4656 3366 4563 
z
" transform="scale(0.015625)"/>
       </defs>
       <use xlink:href="#DejaVuSans-36"/>
       <use xlink:href="#DejaVuSans-30" x="63.623047"/>
      </g>
     </g>
    </g>
    <g id="xtick_5">
     <g id="line2d_5">
      <g>
       <use xlink:href="#m9388220017" x="518.138993" y="378" style="stroke: #000000; stroke-width: 0.8"/>
      </g>
     </g>
     <g id="text_5">
      <!-- 80 -->
      <g transform="translate(511.776493 392.598437)scale(0.1 -0.1)">
       <defs>
        <path id="DejaVuSans-38" d="M 2034 2216 
Q 1584 2216 1326 1975 
Q 1069 1734 1069 1313 
Q 1069 891 1326 650 
Q 1584 409 2034 409 
Q 2484 409 2743 651 
Q 3003 894 3003 1313 
Q 3003 1734 2745 1975 
Q 2488 2216 2034 2216 
z
M 1403 2484 
Q 997 2584 770 2862 
Q 544 3141 544 3541 
Q 544 4100 942 4425 
Q 1341 4750 2034 4750 
Q 2731 4750 3128 4425 
Q 3525 4100 3525 3541 
Q 3525 3141 3298 2862 
Q 3072 2584 2669 2484 
Q 3125 2378 3379 2068 
Q 3634 1759 3634 1313 
Q 3634 634 3220 271 
Q 2806 -91 2034 -91 
Q 1263 -91 848 271 
Q 434 634 434 1313 
Q 434 1759 690 2068 
Q 947 2378 1403 2484 
z
M 1172 3481 
Q 1172 3119 1398 2916 
Q 1625 2713 2034 2713 
Q 2441 2713 2670 2916 
Q 2900 3119 2900 3481 
Q 2900 3844 2670 4047 
Q 2441 4250 2034 4250 
Q 1625 4250 1398 4047 
Q 1172 3844 1172 3481 
z
" transform="scale(0.015625)"/>
       </defs>
       <use xlink:href="#DejaVuSans-38"/>
       <use xlink:href="#DejaVuSans-30" x="63.623047"/>
      </g>
     </g>
    </g>
    <g id="xtick_6">
     <g id="line2d_6">
      <g>
       <use xlink:href="#m9388220017" x="601.985725" y="378" style="stroke: #000000; stroke-width: 0.8"/>
      </g>
     </g>
     <g id="text_6">
      <!-- 100 -->
      <g transform="translate(592.441975 392.598437)scale(0.1 -0.1)">
       <defs>
        <path id="DejaVuSans-31" d="M 794 531 
L 1825 531 
L 1825 4091 
L 703 3866 
L 703 4441 
L 1819 4666 
L 2450 4666 
L 2450 531 
L 3481 531 
L 3481 0 
L 794 0 
L 794 531 
z
" transform="scale(0.015625)"/>
       </defs>
       <use xlink:href="#DejaVuSans-31"/>
       <use xlink:href="#DejaVuSans-30" x="63.623047"/>
       <use xlink:href="#DejaVuSans-30" x="127.246094"/>
      </g>
     </g>
    </g>
    <g id="text_7">
     <!-- Epoch # -->
     <g transform="translate(369.182884 406.276563)scale(0.1 -0.1)">
      <defs>
       <path id="DejaVuSans-45" d="M 628 4666 
L 3578 4666 
L 3578 4134 
L 1259 4134 
L 1259 2753 
L 3481 2753 
L 3481 2222 
L 1259 2222 
L 1259 531 
L 3634 531 
L 3634 0 
L 628 0 
L 628 4666 
z
" transform="scale(0.015625)"/>
       <path id="DejaVuSans-70" d="M 1159 525 
L 1159 -1331 
L 581 -1331 
L 581 3500 
L 1159 3500 
L 1159 2969 
Q 1341 3281 1617 3432 
Q 1894 3584 2278 3584 
Q 2916 3584 3314 3078 
Q 3713 2572 3713 1747 
Q 3713 922 3314 415 
Q 2916 -91 2278 -91 
Q 1894 -91 1617 61 
Q 1341 213 1159 525 
z
M 3116 1747 
Q 3116 2381 2855 2742 
Q 2594 3103 2138 3103 
Q 1681 3103 1420 2742 
Q 1159 2381 1159 1747 
Q 1159 1113 1420 752 
Q 1681 391 2138 391 
Q 2594 391 2855 752 
Q 3116 1113 3116 1747 
z
" transform="scale(0.015625)"/>
       <path id="DejaVuSans-6f" d="M 1959 3097 
Q 1497 3097 1228 2736 
Q 959 2375 959 1747 
Q 959 1119 1226 758 
Q 1494 397 1959 397 
Q 2419 397 2687 759 
Q 2956 1122 2956 1747 
Q 2956 2369 2687 2733 
Q 2419 3097 1959 3097 
z
M 1959 3584 
Q 2709 3584 3137 3096 
Q 3566 2609 3566 1747 
Q 3566 888 3137 398 
Q 2709 -91 1959 -91 
Q 1206 -91 779 398 
Q 353 888 353 1747 
Q 353 2609 779 3096 
Q 1206 3584 1959 3584 
z
" transform="scale(0.015625)"/>
       <path id="DejaVuSans-63" d="M 3122 3366 
L 3122 2828 
Q 2878 2963 2633 3030 
Q 2388 3097 2138 3097 
Q 1578 3097 1268 2742 
Q 959 2388 959 1747 
Q 959 1106 1268 751 
Q 1578 397 2138 397 
Q 2388 397 2633 464 
Q 2878 531 3122 666 
L 3122 134 
Q 2881 22 2623 -34 
Q 2366 -91 2075 -91 
Q 1284 -91 818 406 
Q 353 903 353 1747 
Q 353 2603 823 3093 
Q 1294 3584 2113 3584 
Q 2378 3584 2631 3529 
Q 2884 3475 3122 3366 
z
" transform="scale(0.015625)"/>
       <path id="DejaVuSans-68" d="M 3513 2113 
L 3513 0 
L 2938 0 
L 2938 2094 
Q 2938 2591 2744 2837 
Q 2550 3084 2163 3084 
Q 1697 3084 1428 2787 
Q 1159 2491 1159 1978 
L 1159 0 
L 581 0 
L 581 4863 
L 1159 4863 
L 1159 2956 
Q 1366 3272 1645 3428 
Q 1925 3584 2291 3584 
Q 2894 3584 3203 3211 
Q 3513 2838 3513 2113 
z
" transform="scale(0.015625)"/>
       <path id="DejaVuSans-20" transform="scale(0.015625)"/>
       <path id="DejaVuSans-23" d="M 3272 2816 
L 2363 2816 
L 2100 1772 
L 3016 1772 
L 3272 2816 
z
M 2803 4594 
L 2478 3297 
L 3391 3297 
L 3719 4594 
L 4219 4594 
L 3897 3297 
L 4872 3297 
L 4872 2816 
L 3775 2816 
L 3519 1772 
L 4513 1772 
L 4513 1294 
L 3397 1294 
L 3072 0 
L 2572 0 
L 2894 1294 
L 1978 1294 
L 1656 0 
L 1153 0 
L 1478 1294 
L 494 1294 
L 494 1772 
L 1594 1772 
L 1856 2816 
L 850 2816 
L 850 3297 
L 1978 3297 
L 2297 4594 
L 2803 4594 
z
" transform="scale(0.015625)"/>
      </defs>
      <use xlink:href="#DejaVuSans-45"/>
      <use xlink:href="#DejaVuSans-70" x="63.183594"/>
      <use xlink:href="#DejaVuSans-6f" x="126.660156"/>
      <use xlink:href="#DejaVuSans-63" x="187.841797"/>
      <use xlink:href="#DejaVuSans-68" x="242.822266"/>
      <use xlink:href="#DejaVuSans-20" x="306.201172"/>
      <use xlink:href="#DejaVuSans-23" x="337.988281"/>
     </g>
    </g>
   </g>
   <g id="matplotlib.axis_2">
    <g id="ytick_1">
     <g id="line2d_7">
      <defs>
       <path id="mc47e5b2a90" d="M 0 0 
L -3.5 0 
" style="stroke: #000000; stroke-width: 0.8"/>
      </defs>
      <g>
       <use xlink:href="#mc47e5b2a90" x="162" y="357.765649" style="stroke: #000000; stroke-width: 0.8"/>
      </g>
     </g>
     <g id="text_8">
      <!-- 0.65 -->
      <g transform="translate(132.734375 361.564868)scale(0.1 -0.1)">
       <defs>
        <path id="DejaVuSans-2e" d="M 684 794 
L 1344 794 
L 1344 0 
L 684 0 
L 684 794 
z
" transform="scale(0.015625)"/>
        <path id="DejaVuSans-35" d="M 691 4666 
L 3169 4666 
L 3169 4134 
L 1269 4134 
L 1269 2991 
Q 1406 3038 1543 3061 
Q 1681 3084 1819 3084 
Q 2600 3084 3056 2656 
Q 3513 2228 3513 1497 
Q 3513 744 3044 326 
Q 2575 -91 1722 -91 
Q 1428 -91 1123 -41 
Q 819 9 494 109 
L 494 744 
Q 775 591 1075 516 
Q 1375 441 1709 441 
Q 2250 441 2565 725 
Q 2881 1009 2881 1497 
Q 2881 1984 2565 2268 
Q 2250 2553 1709 2553 
Q 1456 2553 1204 2497 
Q 953 2441 691 2322 
L 691 4666 
z
" transform="scale(0.015625)"/>
       </defs>
       <use xlink:href="#DejaVuSans-30"/>
       <use xlink:href="#DejaVuSans-2e" x="63.623047"/>
       <use xlink:href="#DejaVuSans-36" x="95.410156"/>
       <use xlink:href="#DejaVuSans-35" x="159.033203"/>
      </g>
     </g>
    </g>
    <g id="ytick_2">
     <g id="line2d_8">
      <g>
       <use xlink:href="#mc47e5b2a90" x="162" y="298.29924" style="stroke: #000000; stroke-width: 0.8"/>
      </g>
     </g>
     <g id="text_9">
      <!-- 0.70 -->
      <g transform="translate(132.734375 302.098459)scale(0.1 -0.1)">
       <defs>
        <path id="DejaVuSans-37" d="M 525 4666 
L 3525 4666 
L 3525 4397 
L 1831 0 
L 1172 0 
L 2766 4134 
L 525 4134 
L 525 4666 
z
" transform="scale(0.015625)"/>
       </defs>
       <use xlink:href="#DejaVuSans-30"/>
       <use xlink:href="#DejaVuSans-2e" x="63.623047"/>
       <use xlink:href="#DejaVuSans-37" x="95.410156"/>
       <use xlink:href="#DejaVuSans-30" x="159.033203"/>
      </g>
     </g>
    </g>
    <g id="ytick_3">
     <g id="line2d_9">
      <g>
       <use xlink:href="#mc47e5b2a90" x="162" y="238.832831" style="stroke: #000000; stroke-width: 0.8"/>
      </g>
     </g>
     <g id="text_10">
      <!-- 0.75 -->
      <g transform="translate(132.734375 242.632049)scale(0.1 -0.1)">
       <use xlink:href="#DejaVuSans-30"/>
       <use xlink:href="#DejaVuSans-2e" x="63.623047"/>
       <use xlink:href="#DejaVuSans-37" x="95.410156"/>
       <use xlink:href="#DejaVuSans-35" x="159.033203"/>
      </g>
     </g>
    </g>
    <g id="ytick_4">
     <g id="line2d_10">
      <g>
       <use xlink:href="#mc47e5b2a90" x="162" y="179.366421" style="stroke: #000000; stroke-width: 0.8"/>
      </g>
     </g>
     <g id="text_11">
      <!-- 0.80 -->
      <g transform="translate(132.734375 183.16564)scale(0.1 -0.1)">
       <use xlink:href="#DejaVuSans-30"/>
       <use xlink:href="#DejaVuSans-2e" x="63.623047"/>
       <use xlink:href="#DejaVuSans-38" x="95.410156"/>
       <use xlink:href="#DejaVuSans-30" x="159.033203"/>
      </g>
     </g>
    </g>
    <g id="ytick_5">
     <g id="line2d_11">
      <g>
       <use xlink:href="#mc47e5b2a90" x="162" y="119.900012" style="stroke: #000000; stroke-width: 0.8"/>
      </g>
     </g>
     <g id="text_12">
      <!-- 0.85 -->
      <g transform="translate(132.734375 123.699231)scale(0.1 -0.1)">
       <use xlink:href="#DejaVuSans-30"/>
       <use xlink:href="#DejaVuSans-2e" x="63.623047"/>
       <use xlink:href="#DejaVuSans-38" x="95.410156"/>
       <use xlink:href="#DejaVuSans-35" x="159.033203"/>
      </g>
     </g>
    </g>
    <g id="ytick_6">
     <g id="line2d_12">
      <g>
       <use xlink:href="#mc47e5b2a90" x="162" y="60.433603" style="stroke: #000000; stroke-width: 0.8"/>
      </g>
     </g>
     <g id="text_13">
      <!-- 0.90 -->
      <g transform="translate(132.734375 64.232821)scale(0.1 -0.1)">
       <defs>
        <path id="DejaVuSans-39" d="M 703 97 
L 703 672 
Q 941 559 1184 500 
Q 1428 441 1663 441 
Q 2288 441 2617 861 
Q 2947 1281 2994 2138 
Q 2813 1869 2534 1725 
Q 2256 1581 1919 1581 
Q 1219 1581 811 2004 
Q 403 2428 403 3163 
Q 403 3881 828 4315 
Q 1253 4750 1959 4750 
Q 2769 4750 3195 4129 
Q 3622 3509 3622 2328 
Q 3622 1225 3098 567 
Q 2575 -91 1691 -91 
Q 1453 -91 1209 -44 
Q 966 3 703 97 
z
M 1959 2075 
Q 2384 2075 2632 2365 
Q 2881 2656 2881 3163 
Q 2881 3666 2632 3958 
Q 2384 4250 1959 4250 
Q 1534 4250 1286 3958 
Q 1038 3666 1038 3163 
Q 1038 2656 1286 2365 
Q 1534 2075 1959 2075 
z
" transform="scale(0.015625)"/>
       </defs>
       <use xlink:href="#DejaVuSans-30"/>
       <use xlink:href="#DejaVuSans-2e" x="63.623047"/>
       <use xlink:href="#DejaVuSans-39" x="95.410156"/>
       <use xlink:href="#DejaVuSans-30" x="159.033203"/>
      </g>
     </g>
    </g>
    <g id="text_14">
     <!-- Acc -->
     <g transform="translate(126.654687 223.75125)rotate(-90)scale(0.1 -0.1)">
      <defs>
       <path id="DejaVuSans-41" d="M 2188 4044 
L 1331 1722 
L 3047 1722 
L 2188 4044 
z
M 1831 4666 
L 2547 4666 
L 4325 0 
L 3669 0 
L 3244 1197 
L 1141 1197 
L 716 0 
L 50 0 
L 1831 4666 
z
" transform="scale(0.015625)"/>
      </defs>
      <use xlink:href="#DejaVuSans-41"/>
      <use xlink:href="#DejaVuSans-63" x="66.658203"/>
      <use xlink:href="#DejaVuSans-63" x="121.638672"/>
     </g>
    </g>
   </g>
   <g id="line2d_13">
    <path d="M 182.752066 363.174545 
L 186.944403 297.201814 
L 191.136739 277.447609 
L 195.329076 267.100154 
L 199.521412 257.94421 
L 203.713749 252.362869 
L 207.906086 242.579836 
L 212.098422 231.354486 
L 216.290759 226.149355 
L 220.483095 218.937555 
L 224.675432 209.59347 
L 228.867769 210.346033 
L 233.060105 202.005389 
L 237.252442 198.430787 
L 241.444778 189.149439 
L 245.637115 181.247743 
L 249.829452 179.178266 
L 254.021788 176.293561 
L 258.214125 176.418964 
L 262.406461 175.917279 
L 266.598798 171.0885 
L 270.791134 161.995293 
L 274.983471 160.929187 
L 279.175808 158.608832 
L 283.368144 155.473248 
L 287.560481 159.424061 
L 291.752817 158.357954 
L 295.945154 152.337665 
L 300.137491 150.895276 
L 304.329827 144.874987 
L 308.522164 149.076677 
L 312.7145 144.561372 
L 316.906837 149.01394 
L 321.099174 147.320745 
L 325.29151 143.181721 
L 329.483847 145.815619 
L 333.676183 145.752953 
L 337.86852 147.697026 
L 342.060856 145.376672 
L 346.253193 137.851257 
L 350.44553 138.290204 
L 354.637866 140.610559 
L 358.830203 138.666486 
L 363.022539 138.164801 
L 367.214876 137.036028 
L 371.407213 134.464795 
L 375.599549 136.659746 
L 379.791886 130.764789 
L 383.984222 129.259735 
L 388.176559 136.534272 
L 392.368896 133.147881 
L 396.561232 129.447876 
L 400.753569 130.702123 
L 404.945905 127.378399 
L 409.138242 131.078405 
L 413.330579 125.246185 
L 417.522915 127.566539 
L 421.715252 127.942821 
L 425.907588 122.92583 
L 430.099925 125.434326 
L 434.292261 120.856354 
L 438.484598 121.859723 
L 442.676935 122.92583 
L 446.869271 122.173338 
L 451.061608 119.852984 
L 455.253944 123.55299 
L 459.446281 121.420776 
L 463.638618 122.173338 
L 467.830954 122.988567 
L 472.023291 118.849614 
L 476.215627 124.493622 
L 480.407964 113.017394 
L 484.600301 116.278382 
L 488.792637 116.780137 
L 492.984974 113.017394 
L 497.17731 113.456413 
L 501.369647 110.132689 
L 505.561983 114.397046 
L 509.75432 115.149608 
L 513.946657 116.591997 
L 518.138993 116.341119 
L 522.33133 110.822514 
L 526.523666 114.334379 
L 530.716003 112.327569 
L 534.90834 114.334379 
L 539.100676 112.578447 
L 543.293013 112.578447 
L 547.485349 110.759777 
L 551.677686 108.627563 
L 555.870023 108.815704 
L 560.062359 112.578447 
L 564.254696 108.941107 
L 568.447032 111.575006 
L 572.639369 111.951287 
L 576.831705 110.258092 
L 581.024042 108.314019 
L 585.216379 111.261462 
L 589.408715 108.063141 
L 593.601052 105.554717 
L 597.793388 109.254722 
" clip-path="url(#pb07084bc81)" style="fill: none; stroke: #1f77b4; stroke-width: 1.5; stroke-linecap: square"/>
   </g>
   <g id="line2d_14">
    <path d="M 182.752066 269.727886 
L 186.944403 252.828045 
L 191.136739 258.373304 
L 195.329076 216.915787 
L 199.521412 207.145586 
L 203.713749 187.869175 
L 207.906086 202.392517 
L 212.098422 191.301928 
L 216.290759 174.666151 
L 220.483095 297.454252 
L 224.675432 161.991253 
L 228.867769 176.778657 
L 233.060105 168.328702 
L 237.252442 150.900735 
L 241.444778 304.847954 
L 245.637115 140.602336 
L 249.829452 174.666151 
L 254.021788 162.519379 
L 258.214125 146.939785 
L 262.406461 167.800575 
L 266.598798 164.367823 
L 270.791134 123.174369 
L 274.983471 130.568071 
L 279.175808 156.97412 
L 283.368144 123.702495 
L 287.560481 116.04473 
L 291.752817 129.247754 
L 295.945154 137.961773 
L 300.137491 93.335567 
L 304.329827 127.663375 
L 308.522164 103.897959 
L 312.7145 119.21349 
L 316.906837 105.218275 
L 321.099174 124.230622 
L 325.29151 124.758749 
L 329.483847 114.46035 
L 333.676183 109.707281 
L 337.86852 100.993262 
L 342.060856 118.157236 
L 346.253193 99.408953 
L 350.44553 113.404097 
L 354.637866 149.580418 
L 358.830203 103.897959 
L 363.022539 110.235408 
L 367.214876 121.325926 
L 371.407213 139.810146 
L 375.599549 117.365046 
L 379.791886 103.369832 
L 383.984222 106.802584 
L 388.176559 113.140033 
L 392.368896 95.448003 
L 396.561232 117.365046 
L 400.753569 94.39175 
L 404.945905 175.194277 
L 409.138242 94.39175 
L 413.330579 187.076985 
L 417.522915 111.555724 
L 421.715252 109.179154 
L 425.907588 94.655813 
L 430.099925 139.282019 
L 434.292261 102.049515 
L 438.484598 90.430871 
L 442.676935 99.673016 
L 446.869271 101.521389 
L 451.061608 102.841705 
L 455.253944 80.132543 
L 459.446281 88.054301 
L 463.638618 86.734055 
L 467.830954 83.037168 
L 472.023291 98.880826 
L 476.215627 103.897959 
L 480.407964 94.39175 
L 484.600301 81.452788 
L 488.792637 85.413738 
L 492.984974 88.054301 
L 497.17731 116.83692 
L 501.369647 84.357485 
L 505.561983 87.262111 
L 509.75432 90.430871 
L 513.946657 88.318364 
L 518.138993 104.426085 
L 522.33133 139.017956 
L 526.523666 158.030374 
L 530.716003 104.690149 
L 534.90834 92.279314 
L 539.100676 81.188725 
L 543.293013 87.262111 
L 547.485349 94.655813 
L 551.677686 106.538521 
L 555.870023 109.707281 
L 560.062359 115.25254 
L 564.254696 85.149675 
L 568.447032 117.62911 
L 572.639369 100.465135 
L 576.831705 99.408953 
L 581.024042 112.611977 
L 585.216379 66.665455 
L 589.408715 80.924662 
L 593.601052 111.819787 
L 597.793388 99.408953 
" clip-path="url(#pb07084bc81)" style="fill: none; stroke: #ff7f0e; stroke-width: 1.5; stroke-linecap: square"/>
   </g>
   <g id="patch_3">
    <path d="M 162 378 
L 162 51.84 
" style="fill: none; stroke: #000000; stroke-width: 0.8; stroke-linejoin: miter; stroke-linecap: square"/>
   </g>
   <g id="patch_4">
    <path d="M 618.545455 378 
L 618.545455 51.84 
" style="fill: none; stroke: #000000; stroke-width: 0.8; stroke-linejoin: miter; stroke-linecap: square"/>
   </g>
   <g id="patch_5">
    <path d="M 162 378 
L 618.545455 378 
" style="fill: none; stroke: #000000; stroke-width: 0.8; stroke-linejoin: miter; stroke-linecap: square"/>
   </g>
   <g id="patch_6">
    <path d="M 162 51.84 
L 618.545455 51.84 
" style="fill: none; stroke: #000000; stroke-width: 0.8; stroke-linejoin: miter; stroke-linecap: square"/>
   </g>
   <g id="text_15">
    <!-- Acc Result Plot -->
    <g transform="translate(346.015227 45.84)scale(0.12 -0.12)">
     <defs>
      <path id="DejaVuSans-52" d="M 2841 2188 
Q 3044 2119 3236 1894 
Q 3428 1669 3622 1275 
L 4263 0 
L 3584 0 
L 2988 1197 
Q 2756 1666 2539 1819 
Q 2322 1972 1947 1972 
L 1259 1972 
L 1259 0 
L 628 0 
L 628 4666 
L 2053 4666 
Q 2853 4666 3247 4331 
Q 3641 3997 3641 3322 
Q 3641 2881 3436 2590 
Q 3231 2300 2841 2188 
z
M 1259 4147 
L 1259 2491 
L 2053 2491 
Q 2509 2491 2742 2702 
Q 2975 2913 2975 3322 
Q 2975 3731 2742 3939 
Q 2509 4147 2053 4147 
L 1259 4147 
z
" transform="scale(0.015625)"/>
      <path id="DejaVuSans-65" d="M 3597 1894 
L 3597 1613 
L 953 1613 
Q 991 1019 1311 708 
Q 1631 397 2203 397 
Q 2534 397 2845 478 
Q 3156 559 3463 722 
L 3463 178 
Q 3153 47 2828 -22 
Q 2503 -91 2169 -91 
Q 1331 -91 842 396 
Q 353 884 353 1716 
Q 353 2575 817 3079 
Q 1281 3584 2069 3584 
Q 2775 3584 3186 3129 
Q 3597 2675 3597 1894 
z
M 3022 2063 
Q 3016 2534 2758 2815 
Q 2500 3097 2075 3097 
Q 1594 3097 1305 2825 
Q 1016 2553 972 2059 
L 3022 2063 
z
" transform="scale(0.015625)"/>
      <path id="DejaVuSans-73" d="M 2834 3397 
L 2834 2853 
Q 2591 2978 2328 3040 
Q 2066 3103 1784 3103 
Q 1356 3103 1142 2972 
Q 928 2841 928 2578 
Q 928 2378 1081 2264 
Q 1234 2150 1697 2047 
L 1894 2003 
Q 2506 1872 2764 1633 
Q 3022 1394 3022 966 
Q 3022 478 2636 193 
Q 2250 -91 1575 -91 
Q 1294 -91 989 -36 
Q 684 19 347 128 
L 347 722 
Q 666 556 975 473 
Q 1284 391 1588 391 
Q 1994 391 2212 530 
Q 2431 669 2431 922 
Q 2431 1156 2273 1281 
Q 2116 1406 1581 1522 
L 1381 1569 
Q 847 1681 609 1914 
Q 372 2147 372 2553 
Q 372 3047 722 3315 
Q 1072 3584 1716 3584 
Q 2034 3584 2315 3537 
Q 2597 3491 2834 3397 
z
" transform="scale(0.015625)"/>
      <path id="DejaVuSans-75" d="M 544 1381 
L 544 3500 
L 1119 3500 
L 1119 1403 
Q 1119 906 1312 657 
Q 1506 409 1894 409 
Q 2359 409 2629 706 
Q 2900 1003 2900 1516 
L 2900 3500 
L 3475 3500 
L 3475 0 
L 2900 0 
L 2900 538 
Q 2691 219 2414 64 
Q 2138 -91 1772 -91 
Q 1169 -91 856 284 
Q 544 659 544 1381 
z
M 1991 3584 
L 1991 3584 
z
" transform="scale(0.015625)"/>
      <path id="DejaVuSans-6c" d="M 603 4863 
L 1178 4863 
L 1178 0 
L 603 0 
L 603 4863 
z
" transform="scale(0.015625)"/>
      <path id="DejaVuSans-74" d="M 1172 4494 
L 1172 3500 
L 2356 3500 
L 2356 3053 
L 1172 3053 
L 1172 1153 
Q 1172 725 1289 603 
Q 1406 481 1766 481 
L 2356 481 
L 2356 0 
L 1766 0 
Q 1100 0 847 248 
Q 594 497 594 1153 
L 594 3053 
L 172 3053 
L 172 3500 
L 594 3500 
L 594 4494 
L 1172 4494 
z
" transform="scale(0.015625)"/>
      <path id="DejaVuSans-50" d="M 1259 4147 
L 1259 2394 
L 2053 2394 
Q 2494 2394 2734 2622 
Q 2975 2850 2975 3272 
Q 2975 3691 2734 3919 
Q 2494 4147 2053 4147 
L 1259 4147 
z
M 628 4666 
L 2053 4666 
Q 2838 4666 3239 4311 
Q 3641 3956 3641 3272 
Q 3641 2581 3239 2228 
Q 2838 1875 2053 1875 
L 1259 1875 
L 1259 0 
L 628 0 
L 628 4666 
z
" transform="scale(0.015625)"/>
     </defs>
     <use xlink:href="#DejaVuSans-41"/>
     <use xlink:href="#DejaVuSans-63" x="66.658203"/>
     <use xlink:href="#DejaVuSans-63" x="121.638672"/>
     <use xlink:href="#DejaVuSans-20" x="176.619141"/>
     <use xlink:href="#DejaVuSans-52" x="208.40625"/>
     <use xlink:href="#DejaVuSans-65" x="273.388672"/>
     <use xlink:href="#DejaVuSans-73" x="334.912109"/>
     <use xlink:href="#DejaVuSans-75" x="387.011719"/>
     <use xlink:href="#DejaVuSans-6c" x="450.390625"/>
     <use xlink:href="#DejaVuSans-74" x="478.173828"/>
     <use xlink:href="#DejaVuSans-20" x="517.382812"/>
     <use xlink:href="#DejaVuSans-50" x="549.169922"/>
     <use xlink:href="#DejaVuSans-6c" x="609.472656"/>
     <use xlink:href="#DejaVuSans-6f" x="637.255859"/>
     <use xlink:href="#DejaVuSans-74" x="698.4375"/>
    </g>
   </g>
   <g id="legend_1">
    <g id="patch_7">
     <path d="M 534.145455 373 
L 611.545455 373 
Q 613.545455 373 613.545455 371 
L 613.545455 342.0875 
Q 613.545455 340.0875 611.545455 340.0875 
L 534.145455 340.0875 
Q 532.145455 340.0875 532.145455 342.0875 
L 532.145455 371 
Q 532.145455 373 534.145455 373 
z
" style="fill: #ffffff; opacity: 0.8; stroke: #cccccc; stroke-linejoin: miter"/>
    </g>
    <g id="line2d_15">
     <path d="M 536.145455 348.185938 
L 546.145455 348.185938 
L 556.145455 348.185938 
" style="fill: none; stroke: #1f77b4; stroke-width: 1.5; stroke-linecap: square"/>
    </g>
    <g id="text_16">
     <!-- train_acc -->
     <g transform="translate(564.145455 351.685938)scale(0.1 -0.1)">
      <defs>
       <path id="DejaVuSans-72" d="M 2631 2963 
Q 2534 3019 2420 3045 
Q 2306 3072 2169 3072 
Q 1681 3072 1420 2755 
Q 1159 2438 1159 1844 
L 1159 0 
L 581 0 
L 581 3500 
L 1159 3500 
L 1159 2956 
Q 1341 3275 1631 3429 
Q 1922 3584 2338 3584 
Q 2397 3584 2469 3576 
Q 2541 3569 2628 3553 
L 2631 2963 
z
" transform="scale(0.015625)"/>
       <path id="DejaVuSans-61" d="M 2194 1759 
Q 1497 1759 1228 1600 
Q 959 1441 959 1056 
Q 959 750 1161 570 
Q 1363 391 1709 391 
Q 2188 391 2477 730 
Q 2766 1069 2766 1631 
L 2766 1759 
L 2194 1759 
z
M 3341 1997 
L 3341 0 
L 2766 0 
L 2766 531 
Q 2569 213 2275 61 
Q 1981 -91 1556 -91 
Q 1019 -91 701 211 
Q 384 513 384 1019 
Q 384 1609 779 1909 
Q 1175 2209 1959 2209 
L 2766 2209 
L 2766 2266 
Q 2766 2663 2505 2880 
Q 2244 3097 1772 3097 
Q 1472 3097 1187 3025 
Q 903 2953 641 2809 
L 641 3341 
Q 956 3463 1253 3523 
Q 1550 3584 1831 3584 
Q 2591 3584 2966 3190 
Q 3341 2797 3341 1997 
z
" transform="scale(0.015625)"/>
       <path id="DejaVuSans-69" d="M 603 3500 
L 1178 3500 
L 1178 0 
L 603 0 
L 603 3500 
z
M 603 4863 
L 1178 4863 
L 1178 4134 
L 603 4134 
L 603 4863 
z
" transform="scale(0.015625)"/>
       <path id="DejaVuSans-6e" d="M 3513 2113 
L 3513 0 
L 2938 0 
L 2938 2094 
Q 2938 2591 2744 2837 
Q 2550 3084 2163 3084 
Q 1697 3084 1428 2787 
Q 1159 2491 1159 1978 
L 1159 0 
L 581 0 
L 581 3500 
L 1159 3500 
L 1159 2956 
Q 1366 3272 1645 3428 
Q 1925 3584 2291 3584 
Q 2894 3584 3203 3211 
Q 3513 2838 3513 2113 
z
" transform="scale(0.015625)"/>
       <path id="DejaVuSans-5f" d="M 3263 -1063 
L 3263 -1509 
L -63 -1509 
L -63 -1063 
L 3263 -1063 
z
" transform="scale(0.015625)"/>
      </defs>
      <use xlink:href="#DejaVuSans-74"/>
      <use xlink:href="#DejaVuSans-72" x="39.208984"/>
      <use xlink:href="#DejaVuSans-61" x="80.322266"/>
      <use xlink:href="#DejaVuSans-69" x="141.601562"/>
      <use xlink:href="#DejaVuSans-6e" x="169.384766"/>
      <use xlink:href="#DejaVuSans-5f" x="232.763672"/>
      <use xlink:href="#DejaVuSans-61" x="282.763672"/>
      <use xlink:href="#DejaVuSans-63" x="344.042969"/>
      <use xlink:href="#DejaVuSans-63" x="399.023438"/>
     </g>
    </g>
    <g id="line2d_16">
     <path d="M 536.145455 363.142187 
L 546.145455 363.142187 
L 556.145455 363.142187 
" style="fill: none; stroke: #ff7f0e; stroke-width: 1.5; stroke-linecap: square"/>
    </g>
    <g id="text_17">
     <!-- val_acc -->
     <g transform="translate(564.145455 366.642187)scale(0.1 -0.1)">
      <defs>
       <path id="DejaVuSans-76" d="M 191 3500 
L 800 3500 
L 1894 563 
L 2988 3500 
L 3597 3500 
L 2284 0 
L 1503 0 
L 191 3500 
z
" transform="scale(0.015625)"/>
      </defs>
      <use xlink:href="#DejaVuSans-76"/>
      <use xlink:href="#DejaVuSans-61" x="59.179688"/>
      <use xlink:href="#DejaVuSans-6c" x="120.458984"/>
      <use xlink:href="#DejaVuSans-5f" x="148.242188"/>
      <use xlink:href="#DejaVuSans-61" x="198.242188"/>
      <use xlink:href="#DejaVuSans-63" x="259.521484"/>
      <use xlink:href="#DejaVuSans-63" x="314.501953"/>
     </g>
    </g>
   </g>
  </g>
  <g id="axes_2">
   <g id="patch_8">
    <path d="M 709.854545 378 
L 1166.4 378 
L 1166.4 51.84 
L 709.854545 51.84 
z
" style="fill: #ffffff"/>
   </g>
   <g id="matplotlib.axis_3">
    <g id="xtick_7">
     <g id="line2d_17">
      <g>
       <use xlink:href="#m9388220017" x="730.606612" y="378" style="stroke: #000000; stroke-width: 0.8"/>
      </g>
     </g>
     <g id="text_18">
      <!-- 0 -->
      <g transform="translate(727.425362 392.598437)scale(0.1 -0.1)">
       <use xlink:href="#DejaVuSans-30"/>
      </g>
     </g>
    </g>
    <g id="xtick_8">
     <g id="line2d_18">
      <g>
       <use xlink:href="#m9388220017" x="814.453343" y="378" style="stroke: #000000; stroke-width: 0.8"/>
      </g>
     </g>
     <g id="text_19">
      <!-- 20 -->
      <g transform="translate(808.090843 392.598437)scale(0.1 -0.1)">
       <use xlink:href="#DejaVuSans-32"/>
       <use xlink:href="#DejaVuSans-30" x="63.623047"/>
      </g>
     </g>
    </g>
    <g id="xtick_9">
     <g id="line2d_19">
      <g>
       <use xlink:href="#m9388220017" x="898.300075" y="378" style="stroke: #000000; stroke-width: 0.8"/>
      </g>
     </g>
     <g id="text_20">
      <!-- 40 -->
      <g transform="translate(891.937575 392.598437)scale(0.1 -0.1)">
       <use xlink:href="#DejaVuSans-34"/>
       <use xlink:href="#DejaVuSans-30" x="63.623047"/>
      </g>
     </g>
    </g>
    <g id="xtick_10">
     <g id="line2d_20">
      <g>
       <use xlink:href="#m9388220017" x="982.146807" y="378" style="stroke: #000000; stroke-width: 0.8"/>
      </g>
     </g>
     <g id="text_21">
      <!-- 60 -->
      <g transform="translate(975.784307 392.598437)scale(0.1 -0.1)">
       <use xlink:href="#DejaVuSans-36"/>
       <use xlink:href="#DejaVuSans-30" x="63.623047"/>
      </g>
     </g>
    </g>
    <g id="xtick_11">
     <g id="line2d_21">
      <g>
       <use xlink:href="#m9388220017" x="1065.993539" y="378" style="stroke: #000000; stroke-width: 0.8"/>
      </g>
     </g>
     <g id="text_22">
      <!-- 80 -->
      <g transform="translate(1059.631039 392.598437)scale(0.1 -0.1)">
       <use xlink:href="#DejaVuSans-38"/>
       <use xlink:href="#DejaVuSans-30" x="63.623047"/>
      </g>
     </g>
    </g>
    <g id="xtick_12">
     <g id="line2d_22">
      <g>
       <use xlink:href="#m9388220017" x="1149.84027" y="378" style="stroke: #000000; stroke-width: 0.8"/>
      </g>
     </g>
     <g id="text_23">
      <!-- 100 -->
      <g transform="translate(1140.29652 392.598437)scale(0.1 -0.1)">
       <use xlink:href="#DejaVuSans-31"/>
       <use xlink:href="#DejaVuSans-30" x="63.623047"/>
       <use xlink:href="#DejaVuSans-30" x="127.246094"/>
      </g>
     </g>
    </g>
    <g id="text_24">
     <!-- Epoch # -->
     <g transform="translate(917.037429 406.276563)scale(0.1 -0.1)">
      <use xlink:href="#DejaVuSans-45"/>
      <use xlink:href="#DejaVuSans-70" x="63.183594"/>
      <use xlink:href="#DejaVuSans-6f" x="126.660156"/>
      <use xlink:href="#DejaVuSans-63" x="187.841797"/>
      <use xlink:href="#DejaVuSans-68" x="242.822266"/>
      <use xlink:href="#DejaVuSans-20" x="306.201172"/>
      <use xlink:href="#DejaVuSans-23" x="337.988281"/>
     </g>
    </g>
   </g>
   <g id="matplotlib.axis_4">
    <g id="ytick_7">
     <g id="line2d_23">
      <g>
       <use xlink:href="#mc47e5b2a90" x="709.854545" y="313.650621" style="stroke: #000000; stroke-width: 0.8"/>
      </g>
     </g>
     <g id="text_25">
      <!-- 0.4 -->
      <g transform="translate(686.95142 317.44984)scale(0.1 -0.1)">
       <use xlink:href="#DejaVuSans-30"/>
       <use xlink:href="#DejaVuSans-2e" x="63.623047"/>
       <use xlink:href="#DejaVuSans-34" x="95.410156"/>
      </g>
     </g>
    </g>
    <g id="ytick_8">
     <g id="line2d_24">
      <g>
       <use xlink:href="#mc47e5b2a90" x="709.854545" y="246.98868" style="stroke: #000000; stroke-width: 0.8"/>
      </g>
     </g>
     <g id="text_26">
      <!-- 0.6 -->
      <g transform="translate(686.95142 250.787898)scale(0.1 -0.1)">
       <use xlink:href="#DejaVuSans-30"/>
       <use xlink:href="#DejaVuSans-2e" x="63.623047"/>
       <use xlink:href="#DejaVuSans-36" x="95.410156"/>
      </g>
     </g>
    </g>
    <g id="ytick_9">
     <g id="line2d_25">
      <g>
       <use xlink:href="#mc47e5b2a90" x="709.854545" y="180.326738" style="stroke: #000000; stroke-width: 0.8"/>
      </g>
     </g>
     <g id="text_27">
      <!-- 0.8 -->
      <g transform="translate(686.95142 184.125957)scale(0.1 -0.1)">
       <use xlink:href="#DejaVuSans-30"/>
       <use xlink:href="#DejaVuSans-2e" x="63.623047"/>
       <use xlink:href="#DejaVuSans-38" x="95.410156"/>
      </g>
     </g>
    </g>
    <g id="ytick_10">
     <g id="line2d_26">
      <g>
       <use xlink:href="#mc47e5b2a90" x="709.854545" y="113.664796" style="stroke: #000000; stroke-width: 0.8"/>
      </g>
     </g>
     <g id="text_28">
      <!-- 1.0 -->
      <g transform="translate(686.95142 117.464015)scale(0.1 -0.1)">
       <use xlink:href="#DejaVuSans-31"/>
       <use xlink:href="#DejaVuSans-2e" x="63.623047"/>
       <use xlink:href="#DejaVuSans-30" x="95.410156"/>
      </g>
     </g>
    </g>
    <g id="text_29">
     <!-- Loss -->
     <g transform="translate(680.871733 225.887187)rotate(-90)scale(0.1 -0.1)">
      <defs>
       <path id="DejaVuSans-4c" d="M 628 4666 
L 1259 4666 
L 1259 531 
L 3531 531 
L 3531 0 
L 628 0 
L 628 4666 
z
" transform="scale(0.015625)"/>
      </defs>
      <use xlink:href="#DejaVuSans-4c"/>
      <use xlink:href="#DejaVuSans-6f" x="53.962891"/>
      <use xlink:href="#DejaVuSans-73" x="115.144531"/>
      <use xlink:href="#DejaVuSans-73" x="167.244141"/>
     </g>
    </g>
   </g>
   <g id="line2d_27">
    <path d="M 730.606612 213.45672 
L 734.798948 254.189714 
L 738.991285 260.833531 
L 743.183621 265.686456 
L 747.375958 270.059696 
L 751.568295 272.887319 
L 755.760631 275.775357 
L 759.952968 280.313472 
L 764.145304 281.638409 
L 768.337641 284.840422 
L 772.529977 287.875027 
L 776.722314 290.773405 
L 780.914651 293.417777 
L 785.106987 297.575412 
L 789.299324 298.627578 
L 793.49166 301.169954 
L 797.683997 302.065937 
L 801.876334 304.270695 
L 806.06867 303.919788 
L 810.261007 305.601433 
L 814.453343 307.986791 
L 818.64568 312.091214 
L 822.838017 311.276178 
L 827.030353 312.96285 
L 831.22269 315.30461 
L 835.415026 313.559818 
L 839.607363 314.547606 
L 843.799699 316.023511 
L 847.992036 316.920865 
L 852.184373 319.353436 
L 856.376709 317.862134 
L 860.569046 318.786765 
L 864.761382 319.300342 
L 868.953719 320.400764 
L 873.146056 320.945353 
L 877.338392 321.313952 
L 881.530729 321.022337 
L 885.723065 320.19849 
L 889.915402 322.756232 
L 894.107739 324.560347 
L 898.300075 324.412925 
L 902.492412 323.868168 
L 906.684748 323.911209 
L 910.877085 325.111949 
L 915.069421 324.808086 
L 919.261758 326.601403 
L 923.454095 327.288973 
L 927.646431 327.826748 
L 931.838768 329.818574 
L 936.031104 327.208344 
L 940.223441 328.437791 
L 944.415778 328.5916 
L 948.608114 328.849213 
L 952.800451 330.610296 
L 956.992787 328.671415 
L 961.185124 331.254656 
L 965.377461 330.594323 
L 969.569797 331.128214 
L 973.762134 332.310259 
L 977.95447 331.57624 
L 982.146807 333.596347 
L 986.339144 332.007976 
L 990.53148 332.110638 
L 994.723817 332.998803 
L 998.916153 334.800941 
L 1003.10849 333.004505 
L 1007.300826 334.729341 
L 1011.493163 333.631889 
L 1015.6855 333.30199 
L 1019.877836 334.828814 
L 1024.070173 333.86579 
L 1028.262509 335.562336 
L 1032.454846 336.139477 
L 1036.647183 335.414617 
L 1040.839519 336.831547 
L 1045.031856 337.614895 
L 1049.224192 338.641701 
L 1053.416529 335.756832 
L 1057.608866 337.433948 
L 1061.801202 338.34656 
L 1065.993539 337.653159 
L 1070.185875 337.869379 
L 1074.378212 338.752409 
L 1078.570548 339.145156 
L 1082.762885 337.185315 
L 1086.955222 339.672709 
L 1091.147558 338.624228 
L 1095.339895 338.404114 
L 1099.532231 339.453201 
L 1103.724568 340.379977 
L 1107.916905 340.361819 
L 1112.109241 340.064701 
L 1116.301578 338.209668 
L 1120.493914 339.861334 
L 1124.686251 340.495771 
L 1128.878588 340.689423 
L 1133.070924 340.928093 
L 1137.263261 340.109044 
L 1141.455597 342.323527 
L 1145.647934 341.189063 
" clip-path="url(#pcba5bb9b07)" style="fill: none; stroke: #1f77b4; stroke-width: 1.5; stroke-linecap: square"/>
   </g>
   <g id="line2d_28">
    <path d="M 730.606612 262.17017 
L 734.798948 273.498482 
L 738.991285 270.821429 
L 743.183621 281.185972 
L 747.375958 292.839176 
L 751.568295 299.642752 
L 755.760631 289.558898 
L 759.952968 299.52086 
L 764.145304 300.78111 
L 768.337641 66.665455 
L 772.529977 307.241299 
L 776.722314 299.198491 
L 780.914651 238.717147 
L 785.106987 312.700549 
L 789.299324 258.288137 
L 793.49166 319.593357 
L 797.683997 244.477885 
L 801.876334 312.996624 
L 806.06867 323.76045 
L 810.261007 308.58206 
L 814.453343 311.380906 
L 818.64568 332.544886 
L 822.838017 319.201286 
L 827.030353 312.747355 
L 831.22269 321.485422 
L 835.415026 333.472924 
L 839.607363 330.744963 
L 843.799699 317.782617 
L 847.992036 345.721814 
L 852.184373 328.079444 
L 856.376709 343.234818 
L 860.569046 332.099661 
L 864.761382 335.872835 
L 868.953719 315.229186 
L 873.146056 329.835451 
L 877.338392 338.688577 
L 881.530729 335.354947 
L 885.723065 345.33165 
L 889.915402 339.812561 
L 894.107739 345.270033 
L 898.300075 340.068506 
L 902.492412 325.751849 
L 906.684748 345.504362 
L 910.877085 324.934389 
L 915.069421 334.060296 
L 919.261758 325.629738 
L 923.454095 342.556346 
L 927.646431 345.612656 
L 931.838768 327.48347 
L 936.031104 341.026155 
L 940.223441 327.156472 
L 944.415778 340.403072 
L 948.608114 335.390896 
L 952.800451 281.752862 
L 956.992787 351.47548 
L 961.185124 314.158772 
L 965.377461 336.43284 
L 969.569797 337.84535 
L 973.762134 351.453586 
L 977.95447 330.502102 
L 982.146807 342.713701 
L 986.339144 351.16222 
L 990.53148 339.744627 
L 994.723817 342.101605 
L 998.916153 340.643282 
L 1003.10849 353.333423 
L 1007.300826 349.36478 
L 1011.493163 346.334755 
L 1015.6855 339.572402 
L 1019.877836 348.78757 
L 1024.070173 346.667891 
L 1028.262509 347.540729 
L 1032.454846 347.462722 
L 1036.647183 348.943843 
L 1040.839519 353.584719 
L 1045.031856 341.163643 
L 1049.224192 354.554874 
L 1053.416529 348.957143 
L 1057.608866 353.4518 
L 1061.801202 344.780862 
L 1065.993539 331.941124 
L 1070.185875 325.140488 
L 1074.378212 325.282049 
L 1078.570548 346.683844 
L 1082.762885 347.708445 
L 1086.955222 355.776961 
L 1091.147558 349.664292 
L 1095.339895 353.321374 
L 1099.532231 334.187941 
L 1103.724568 346.462319 
L 1107.916905 338.90292 
L 1112.109241 351.871425 
L 1116.301578 337.310963 
L 1120.493914 347.03046 
L 1124.686251 346.156977 
L 1128.878588 342.697709 
L 1133.070924 363.174545 
L 1137.263261 352.99839 
L 1141.455597 339.027425 
L 1145.647934 346.587987 
" clip-path="url(#pcba5bb9b07)" style="fill: none; stroke: #ff7f0e; stroke-width: 1.5; stroke-linecap: square"/>
   </g>
   <g id="patch_9">
    <path d="M 709.854545 378 
L 709.854545 51.84 
" style="fill: none; stroke: #000000; stroke-width: 0.8; stroke-linejoin: miter; stroke-linecap: square"/>
   </g>
   <g id="patch_10">
    <path d="M 1166.4 378 
L 1166.4 51.84 
" style="fill: none; stroke: #000000; stroke-width: 0.8; stroke-linejoin: miter; stroke-linecap: square"/>
   </g>
   <g id="patch_11">
    <path d="M 709.854545 378 
L 1166.4 378 
" style="fill: none; stroke: #000000; stroke-width: 0.8; stroke-linejoin: miter; stroke-linecap: square"/>
   </g>
   <g id="patch_12">
    <path d="M 709.854545 51.84 
L 1166.4 51.84 
" style="fill: none; stroke: #000000; stroke-width: 0.8; stroke-linejoin: miter; stroke-linecap: square"/>
   </g>
   <g id="text_30">
    <!-- Loss Result Plot -->
    <g transform="translate(891.306648 45.84)scale(0.12 -0.12)">
     <use xlink:href="#DejaVuSans-4c"/>
     <use xlink:href="#DejaVuSans-6f" x="53.962891"/>
     <use xlink:href="#DejaVuSans-73" x="115.144531"/>
     <use xlink:href="#DejaVuSans-73" x="167.244141"/>
     <use xlink:href="#DejaVuSans-20" x="219.34375"/>
     <use xlink:href="#DejaVuSans-52" x="251.130859"/>
     <use xlink:href="#DejaVuSans-65" x="316.113281"/>
     <use xlink:href="#DejaVuSans-73" x="377.636719"/>
     <use xlink:href="#DejaVuSans-75" x="429.736328"/>
     <use xlink:href="#DejaVuSans-6c" x="493.115234"/>
     <use xlink:href="#DejaVuSans-74" x="520.898438"/>
     <use xlink:href="#DejaVuSans-20" x="560.107422"/>
     <use xlink:href="#DejaVuSans-50" x="591.894531"/>
     <use xlink:href="#DejaVuSans-6c" x="652.197266"/>
     <use xlink:href="#DejaVuSans-6f" x="679.980469"/>
     <use xlink:href="#DejaVuSans-74" x="741.162109"/>
    </g>
   </g>
   <g id="legend_2">
    <g id="patch_13">
     <path d="M 1079.809375 89.7525 
L 1159.4 89.7525 
Q 1161.4 89.7525 1161.4 87.7525 
L 1161.4 58.84 
Q 1161.4 56.84 1159.4 56.84 
L 1079.809375 56.84 
Q 1077.809375 56.84 1077.809375 58.84 
L 1077.809375 87.7525 
Q 1077.809375 89.7525 1079.809375 89.7525 
z
" style="fill: #ffffff; opacity: 0.8; stroke: #cccccc; stroke-linejoin: miter"/>
    </g>
    <g id="line2d_29">
     <path d="M 1081.809375 64.938438 
L 1091.809375 64.938438 
L 1101.809375 64.938438 
" style="fill: none; stroke: #1f77b4; stroke-width: 1.5; stroke-linecap: square"/>
    </g>
    <g id="text_31">
     <!-- train_loss -->
     <g transform="translate(1109.809375 68.438438)scale(0.1 -0.1)">
      <use xlink:href="#DejaVuSans-74"/>
      <use xlink:href="#DejaVuSans-72" x="39.208984"/>
      <use xlink:href="#DejaVuSans-61" x="80.322266"/>
      <use xlink:href="#DejaVuSans-69" x="141.601562"/>
      <use xlink:href="#DejaVuSans-6e" x="169.384766"/>
      <use xlink:href="#DejaVuSans-5f" x="232.763672"/>
      <use xlink:href="#DejaVuSans-6c" x="282.763672"/>
      <use xlink:href="#DejaVuSans-6f" x="310.546875"/>
      <use xlink:href="#DejaVuSans-73" x="371.728516"/>
      <use xlink:href="#DejaVuSans-73" x="423.828125"/>
     </g>
    </g>
    <g id="line2d_30">
     <path d="M 1081.809375 79.894688 
L 1091.809375 79.894688 
L 1101.809375 79.894688 
" style="fill: none; stroke: #ff7f0e; stroke-width: 1.5; stroke-linecap: square"/>
    </g>
    <g id="text_32">
     <!-- val_loss -->
     <g transform="translate(1109.809375 83.394688)scale(0.1 -0.1)">
      <use xlink:href="#DejaVuSans-76"/>
      <use xlink:href="#DejaVuSans-61" x="59.179688"/>
      <use xlink:href="#DejaVuSans-6c" x="120.458984"/>
      <use xlink:href="#DejaVuSans-5f" x="148.242188"/>
      <use xlink:href="#DejaVuSans-6c" x="198.242188"/>
      <use xlink:href="#DejaVuSans-6f" x="226.025391"/>
      <use xlink:href="#DejaVuSans-73" x="287.207031"/>
      <use xlink:href="#DejaVuSans-73" x="339.306641"/>
     </g>
    </g>
   </g>
  </g>
 </g>
 <defs>
  <clipPath id="pb07084bc81">
   <rect x="162" y="51.84" width="456.545455" height="326.16"/>
  </clipPath>
  <clipPath id="pcba5bb9b07">
   <rect x="709.854545" y="51.84" width="456.545455" height="326.16"/>
  </clipPath>
 </defs>
</svg>
